<svg width="41" height="39" viewBox="0 0 41 39" fill="none" xmlns="http://www.w3.org/2000/svg">
<path d="M0.640658 0.457405C0.256283 0.721664 0.0640958 1.01795 0.0240568 1.43436C-0.0400057 1.97889 0.176205 2.47537 0.584604 2.74764L0.904916 2.96385L3.5555 2.98787L6.20609 3.0119L6.58246 4.3492C6.79066 5.08592 8.11195 9.77049 9.52933 14.7674C10.9387 19.7642 12.0918 23.8963 12.0918 23.9443C12.0918 24.0004 11.8836 24.1205 11.6274 24.2086C9.00081 25.1695 7.91976 28.4928 9.47328 30.839C10.0899 31.784 11.3311 32.6168 12.3961 32.809L12.9086 32.9051L12.8526 33.1453C12.7004 33.858 12.6684 34.3545 12.7485 34.883C12.9727 36.5486 13.9817 37.8219 15.5592 38.4545C16.2399 38.7187 17.369 38.7908 18.0977 38.6066C19.7473 38.1902 21.0366 36.8849 21.3809 35.2674C21.477 34.8349 21.453 33.7219 21.3328 33.1293L21.2848 32.873H23.8233H26.3618L26.3137 33.0892C26.2016 33.5697 26.1696 34.851 26.2577 35.2834C26.5619 36.7088 27.7071 37.982 29.1485 38.4945C29.725 38.6947 30.9102 38.7748 31.4787 38.6387C33.0162 38.2863 34.2975 37.1012 34.7619 35.5957C34.9621 34.939 34.9782 33.826 34.786 33.1933C34.3455 31.7199 33.2885 30.6389 31.791 30.1264L31.2705 29.9502L22.0215 29.9101C12.9567 29.8701 12.7645 29.8701 12.5002 29.7099C12.3481 29.6219 12.1159 29.4137 11.9797 29.2455C11.7555 28.9652 11.7315 28.8771 11.7315 28.3967C11.7315 27.7801 11.9076 27.4357 12.3961 27.0994L12.6844 26.9072L23.575 26.8672C32.2955 26.8351 34.5377 26.8031 34.794 26.715C35.819 26.3787 36.7399 25.5859 37.1643 24.673C37.4766 24.0164 40.9119 10.291 40.976 9.45018C41.1121 7.78455 40.0551 6.23905 38.3575 5.63045L37.8369 5.44627L24.9844 5.42225C16.376 5.40623 11.9237 5.43026 11.4993 5.48631C11.1469 5.52635 10.6664 5.65448 10.4262 5.76659C10.178 5.8787 9.95374 5.94276 9.92972 5.91072C9.89769 5.87069 9.59339 4.85369 9.25706 3.64452C8.91273 2.43533 8.55238 1.29823 8.45628 1.12206C8.3682 0.953888 8.12796 0.697639 7.94378 0.561508L7.59144 0.321274L4.25218 0.297249L0.912924 0.273224L0.640658 0.457405ZM15.0227 9.89862C15.2069 10.7234 15.375 11.4922 15.4071 11.6043L15.4551 11.8125H13.6213H11.7795L11.6194 11.268C11.1389 9.63436 11.0508 9.24998 11.0909 9.06581C11.1549 8.83358 11.4993 8.48123 11.7315 8.42518C11.8196 8.40116 12.5243 8.39315 13.293 8.40116L14.6944 8.40916L15.0227 9.89862ZM23.2067 10.1068L23.2227 11.8125H20.8444H18.458L18.1057 10.1869C17.9135 9.29803 17.7373 8.52127 17.7133 8.46522C17.6893 8.38514 18.2418 8.36913 20.428 8.38514L23.1827 8.40916L23.2067 10.1068ZM31.711 8.42518C31.711 8.46522 31.5588 9.23397 31.3746 10.1469L31.0303 11.8125H28.6119H26.1856V10.0908V8.36913H28.9483C30.4698 8.36913 31.711 8.39315 31.711 8.42518ZM37.7649 8.63338C38.0772 9.00174 38.0772 9.16991 37.7489 10.5152L37.4366 11.7724L35.7309 11.7965L34.0332 11.8125L34.0733 11.6363C34.1453 11.308 34.7539 8.43319 34.7539 8.39315C34.7539 8.37713 35.3866 8.36913 36.1633 8.38514L37.5727 8.40916L37.7649 8.63338ZM16.0957 14.8074C16.0957 14.8234 16.2399 15.4721 16.416 16.2568C16.5922 17.0416 16.7364 17.7303 16.7364 17.7863C16.7364 17.8744 16.4241 17.8984 15.1028 17.8984H13.4772L13.0608 16.433C12.8366 15.6242 12.6524 14.9195 12.6524 14.8715C12.6524 14.7994 13.1248 14.7754 14.3741 14.7754C15.319 14.7754 16.0957 14.7914 16.0957 14.8074ZM23.2227 16.3369V17.8984H21.501C20.5561 17.8984 19.7793 17.8824 19.7793 17.8584C19.7793 17.8344 19.6352 17.1697 19.459 16.3769C19.2828 15.5842 19.1387 14.9035 19.1387 14.8555C19.1387 14.8074 19.8674 14.7754 21.1807 14.7754H23.2227V16.3369ZM30.0774 16.3369L29.7491 17.8984H27.9713H26.1856V16.3369V14.7754H28.2916H30.3977L30.0774 16.3369ZM36.6598 14.9115C36.6358 14.9916 36.4676 15.6963 36.2674 16.473L35.9231 17.8984H34.3295C32.8561 17.8984 32.744 17.8904 32.784 17.7543C32.808 17.6822 32.9602 16.9775 33.1203 16.1928L33.4166 14.7754H35.0582C36.5797 14.7754 36.6918 14.7834 36.6598 14.9115ZM17.7534 22.3187C17.9295 23.1275 18.0577 23.8082 18.0416 23.8402C18.0256 23.8803 17.5051 23.9043 16.8885 23.9043C15.6713 23.9043 15.319 23.8242 15.1108 23.4879C15.0147 23.3437 14.334 21.0615 14.334 20.9014C14.334 20.8773 15.0307 20.8613 15.8795 20.8613H17.425L17.7534 22.3187ZM23.1426 22.3828V23.9123L22.1256 23.8883L21.1086 23.8642L20.8043 22.543C20.6442 21.8142 20.508 21.1416 20.5 21.0375C20.5 20.8613 20.5 20.8613 21.8213 20.8613H23.1426V22.3828ZM29.0684 20.9574C29.0684 21.0135 28.9403 21.7021 28.7721 22.4789L28.4758 23.9043H27.3307H26.1856V22.3828V20.8613H27.627C28.7241 20.8613 29.0684 20.8853 29.0684 20.9574ZM35.1543 20.9414C35.1543 20.9894 35.0182 21.55 34.858 22.1986C34.6338 23.1115 34.5217 23.4238 34.3455 23.616L34.1293 23.8642L32.8401 23.8883C31.6389 23.9123 31.5508 23.9043 31.5508 23.7682C31.5508 23.592 32.1034 21.0215 32.1594 20.9254C32.2235 20.8293 35.1543 20.8453 35.1543 20.9414ZM17.6573 33.0252C18.2338 33.2894 18.4981 33.7139 18.4981 34.3705C18.4981 35.4115 17.369 36.0842 16.416 35.5957C15.359 35.0512 15.4231 33.5297 16.5362 33.0252C16.9446 32.841 17.2489 32.841 17.6573 33.0252ZM31.1104 33.0252C32.2235 33.5297 32.2875 35.0512 31.2305 35.5957C30.2856 36.0762 29.1485 35.4115 29.1485 34.3705C29.1485 33.7139 29.4127 33.2894 29.9893 33.0252C30.3977 32.841 30.702 32.841 31.1104 33.0252Z" fill="#4C2923"/>
</svg>
