<svg width="51" height="51" viewBox="0 0 51 51" fill="none" xmlns="http://www.w3.org/2000/svg">
<circle cx="25.1808" cy="25.7312" r="25.1808" fill="white"/>
<path d="M36.1664 38.0877C36.9291 38.0877 37.5373 37.4698 37.5373 36.7168V14.5804C37.5373 13.8178 36.9194 13.2096 36.1664 13.2096H14.03C13.277 13.2096 12.6592 13.8274 12.6592 14.5804V36.7168C12.6592 37.4795 13.277 38.0877 14.03 38.0877H36.1664Z" fill="#D98E63"/>
<path d="M29.8238 38.0877V28.4531H33.0578L33.5405 24.6977H29.8238V22.3036C29.8238 21.2127 30.1231 20.479 31.687 20.479H33.6757V17.1098C33.3281 17.0615 32.1504 16.965 30.7795 16.965C27.9123 16.965 25.9526 18.7123 25.9526 21.9271V24.6977H22.7089V28.4531H25.9526V38.0877H29.8238Z" fill="white"/>
</svg>
