<svg width="32" height="30" viewBox="0 0 32 30" fill="none" xmlns="http://www.w3.org/2000/svg">
<path fill-rule="evenodd" clip-rule="evenodd" d="M15.797 29.9383C15.9204 30.0205 16.0795 30.0205 16.2029 29.9383C19.0932 28.0247 23.3245 25.0548 26.6524 21.3565C30.3223 17.278 32.1195 13.1404 31.9938 9.06209C31.9297 7.1456 31.265 5.3014 30.0986 3.80378C28.9688 2.33813 27.4624 1.22615 25.7496 0.593871C24.0802 -0.0535695 22.2606 -0.174858 20.5238 0.245875C18.787 0.666596 17.2118 1.61013 16 2.95547C14.7619 1.60237 13.163 0.654073 11.4031 0.228591C9.68687 -0.158964 7.89817 -0.0322287 6.25012 0.593877C4.53753 1.22591 3.03113 2.33716 1.90097 3.80209C0.734802 5.29971 0.0702902 7.14415 0.0061655 9.06064C-0.119539 13.1399 1.67748 17.278 5.34735 21.3563C8.67564 25.0544 12.9066 28.0244 15.797 29.9383Z" fill="#D98E63"/>
</svg>
