<svg width="52" height="51" viewBox="0 0 52 51" fill="none" xmlns="http://www.w3.org/2000/svg">
<circle cx="26" cy="25.1808" r="25.1808" fill="white"/>
<path d="M25.9999 14.9649C29.4168 14.9649 29.8215 14.978 31.171 15.0396C32.4187 15.0965 33.0962 15.3049 33.5472 15.4802C34.103 15.6853 34.6058 16.0124 35.0185 16.4374C35.4436 16.8502 35.7707 17.353 35.9758 17.9088C36.151 18.3597 36.3595 19.0373 36.4164 20.285C36.478 21.6344 36.491 22.0391 36.491 25.4561C36.491 28.873 36.478 29.2776 36.4164 30.6271C36.3595 31.8748 36.151 32.5523 35.9758 33.0033C35.7629 33.5552 35.4368 34.0564 35.0185 34.4747C34.6003 34.893 34.0991 35.2191 33.5472 35.4319C33.0962 35.6072 32.4187 35.8157 31.171 35.8726C29.8218 35.9341 29.4171 35.9472 25.9999 35.9472C22.5827 35.9472 22.1781 35.9341 20.8288 35.8726C19.5812 35.8156 18.9036 35.6071 18.4527 35.4319C17.8968 35.2268 17.3941 34.8997 16.9813 34.4747C16.5563 34.0619 16.2292 33.5591 16.024 33.0033C15.8488 32.5524 15.6403 31.8748 15.5834 30.6271C15.5218 29.2778 15.5088 28.873 15.5088 25.4561C15.5088 22.0391 15.5218 21.6345 15.5834 20.285C15.6404 19.0373 15.8488 18.3598 16.024 17.9088C16.2292 17.353 16.5563 16.8502 16.9814 16.4374C17.3942 16.0124 17.8969 15.6853 18.4528 15.4801C18.9037 15.3049 19.5813 15.0964 20.8289 15.0395C22.1783 14.9779 22.583 14.9649 26 14.9649M26 12.6592C22.5246 12.6592 22.0887 12.6739 20.724 12.7362C19.3619 12.7984 18.4317 13.0147 17.6177 13.331C16.7639 13.6523 15.9904 14.156 15.3512 14.807C14.7001 15.4462 14.1962 16.2197 13.8748 17.0736C13.5587 17.8876 13.3424 18.8178 13.2804 20.1799C13.2179 21.5446 13.2032 21.9805 13.2032 25.4559C13.2032 28.9313 13.2179 29.3672 13.2804 30.7319C13.3426 32.0941 13.5589 33.0242 13.8753 33.8382C14.1966 34.6921 14.7003 35.4656 15.3513 36.1047C15.9905 36.7557 16.764 37.2594 17.6178 37.5807C18.4318 37.8971 19.362 38.1134 20.7241 38.1756C22.089 38.2378 22.5248 38.2526 26.0001 38.2526C29.4755 38.2526 29.9114 38.2378 31.2761 38.1756C32.6383 38.1134 33.5684 37.8971 34.3824 37.5807C35.2325 37.252 36.0045 36.7492 36.649 36.1048C37.2934 35.4603 37.7962 34.6883 38.1249 33.8382C38.4413 33.0242 38.6576 32.094 38.7198 30.7319C38.7821 29.367 38.7968 28.9313 38.7968 25.4559C38.7968 21.9806 38.7821 21.5446 38.7198 20.1799C38.6576 18.8178 38.4413 17.8876 38.1249 17.0736C37.8036 16.2197 37.2999 15.4462 36.649 14.8071C36.0098 14.156 35.2362 13.6521 34.3823 13.3308C33.5682 13.0147 32.6381 12.7984 31.2759 12.7364C29.9112 12.6739 29.4753 12.6592 25.9999 12.6592H26Z" fill="#D98E63"/>
<path d="M25.9999 18.8846C24.7002 18.8846 23.4297 19.27 22.3491 19.9921C21.2684 20.7142 20.4262 21.7405 19.9288 22.9412C19.4314 24.142 19.3013 25.4632 19.5549 26.7379C19.8084 28.0126 20.4343 29.1835 21.3533 30.1026C22.2723 31.0216 23.4432 31.6474 24.7179 31.901C25.9926 32.1545 27.3139 32.0244 28.5146 31.527C29.7154 31.0297 30.7417 30.1874 31.4637 29.1068C32.1858 28.0261 32.5712 26.7556 32.5712 25.4559C32.5712 23.7131 31.8789 22.0417 30.6465 20.8093C29.4141 19.577 27.7427 18.8846 25.9999 18.8846ZM25.9999 29.7215C25.1562 29.7215 24.3316 29.4713 23.6301 29.0026C22.9286 28.5339 22.3819 27.8677 22.0591 27.0883C21.7362 26.3088 21.6518 25.4512 21.8164 24.6237C21.981 23.7963 22.3872 23.0363 22.9838 22.4397C23.5803 21.8432 24.3404 21.4369 25.1678 21.2724C25.9952 21.1078 26.8529 21.1923 27.6323 21.5151C28.4117 21.838 29.0779 22.3847 29.5466 23.0861C30.0153 23.7876 30.2655 24.6123 30.2655 25.4559C30.2655 26.5872 29.8161 27.6722 29.0161 28.4721C28.2161 29.2721 27.1312 29.7215 25.9999 29.7215Z" fill="#D98E63"/>
<path d="M32.8308 20.1606C33.6789 20.1606 34.3664 19.4731 34.3664 18.625C34.3664 17.7769 33.6789 17.0894 32.8308 17.0894C31.9827 17.0894 31.2952 17.7769 31.2952 18.625C31.2952 19.4731 31.9827 20.1606 32.8308 20.1606Z" fill="#D98E63"/>
</svg>
