<svg width="368" height="42" viewBox="0 0 368 42" fill="none" xmlns="http://www.w3.org/2000/svg">
<path d="M275.354 39.8925V0.873424C275.354 0.395752 275.741 0.0045166 276.223 0.0045166H276.815C277.292 0.0045166 277.683 0.391202 277.683 0.873424V39.8925C277.683 40.3701 277.297 40.7614 276.815 40.7614H276.223C275.745 40.7614 275.354 40.3747 275.354 39.8925Z" fill="white"/>
<path d="M230.753 39.8925V0.873424C230.753 0.395752 231.14 0.0045166 231.622 0.0045166H232.214C232.691 0.0045166 233.083 0.391202 233.083 0.873424V17.7694C233.083 18.2471 233.469 18.6383 233.951 18.6383H267.611C268.089 18.6383 268.48 18.2516 268.48 17.7694V0.873424C268.48 0.395752 268.867 0.0045166 269.349 0.0045166H269.941C270.418 0.0045166 270.81 0.391202 270.81 0.873424V39.8925C270.81 40.3701 270.423 40.7614 269.941 40.7614H269.349C268.872 40.7614 268.48 40.3747 268.48 39.8925V21.8319C268.48 21.3542 268.094 20.963 267.611 20.963H233.951C233.474 20.963 233.083 21.3497 233.083 21.8319V39.8925C233.083 40.3701 232.696 40.7614 232.214 40.7614H231.622C231.145 40.7614 230.753 40.3747 230.753 39.8925Z" fill="white"/>
<path d="M282.233 39.8925V0.873424C282.233 0.395752 282.619 0.0045166 283.102 0.0045166H284.485C284.721 0.0045166 284.949 0.10005 285.112 0.272922L320.779 37.3403H321.07V0.877975C321.07 0.400302 321.456 0.00906684 321.939 0.00906684H322.53C323.008 0.00906684 323.399 0.395753 323.399 0.877975V39.897C323.399 40.3747 323.012 40.7659 322.53 40.7659H321.147C320.911 40.7659 320.683 40.6704 320.519 40.4975L284.853 3.43011H284.562V39.8925C284.562 40.3701 284.175 40.7614 283.693 40.7614H283.102C282.624 40.7614 282.233 40.3747 282.233 39.8925Z" fill="white"/>
<path d="M327.944 39.8925V0.873424C327.944 0.395752 328.33 0.0045166 328.813 0.0045166H367.131C367.609 0.0045166 368 0.391202 368 0.873424V1.10089C368 1.3329 367.909 1.55127 367.745 1.71504L367.381 2.07898C367.218 2.24275 366.999 2.33374 366.767 2.33374H331.142C330.664 2.33374 330.273 2.72043 330.273 3.20265V17.7694C330.273 18.2471 330.66 18.6383 331.142 18.6383H363.055C363.533 18.6383 363.924 19.025 363.924 19.5072V20.0986C363.924 20.5763 363.537 20.9675 363.055 20.9675H331.142C330.664 20.9675 330.273 21.3542 330.273 21.8364V37.5678C330.273 38.0455 330.66 38.4367 331.142 38.4367H367.131C367.609 38.4367 368 38.8234 368 39.3056V39.897C368 40.3747 367.613 40.7659 367.131 40.7659H328.813C328.335 40.7659 327.944 40.3792 327.944 39.897V39.8925Z" fill="white"/>
<path d="M219.985 19.5027L192.953 17.7694C192.881 17.7649 192.808 17.7512 192.735 17.7285C191.238 17.2645 190.156 16.6185 189.496 15.7814C188.818 14.9261 188.477 13.6478 188.477 11.9373V8.15228C188.477 6.40536 189.009 4.99964 190.078 3.93056C191.147 2.86149 192.553 2.32922 194.3 2.32922H224.744C225.221 2.32922 225.613 1.94254 225.613 1.46031V0.868911C225.613 0.391238 225.226 0 224.744 0H194.3C191.816 0 189.837 0.736981 188.363 2.21094C186.889 3.6849 186.152 5.66839 186.152 8.14773V11.9327C186.152 14.3029 186.666 16.1044 187.694 17.3463C188.704 18.5656 190.192 19.4709 192.162 20.0532C192.23 20.0714 192.298 20.085 192.371 20.0896L219.403 21.8228C219.476 21.8274 219.553 21.841 219.621 21.8638C221.118 22.3278 222.196 22.9783 222.86 23.8109C223.538 24.6661 223.879 25.9445 223.879 27.655V32.6046C223.879 34.3515 223.347 35.7572 222.278 36.8263C221.209 37.8954 219.803 38.4276 218.056 38.4276H187.017C186.539 38.4276 186.148 38.8143 186.148 39.2966V39.888C186.148 40.3656 186.534 40.7569 187.017 40.7569H218.052C220.536 40.7569 222.515 40.0199 223.988 38.5459C225.462 37.072 226.199 35.093 226.199 32.6091V27.6595C226.199 25.2939 225.685 23.4879 224.657 22.2459C223.647 21.0267 222.155 20.1214 220.19 19.5391C220.122 19.5209 220.053 19.5072 219.981 19.5027H219.985Z" fill="white"/>
<path d="M0 40.1791V1.16005C0 0.677825 0.386688 0.291138 0.86891 0.291138H31.0305C33.6691 0.291138 35.739 1.02812 37.2312 2.50208C38.7233 3.97604 39.474 5.95952 39.474 8.43887V12.8062C39.474 15.0581 38.7961 16.8641 37.4359 18.2198C36.8127 18.8021 36.1348 19.2297 35.3978 19.5027V19.7938C36.2531 20.0258 37.0265 20.4353 37.7271 21.0176C39.2784 22.4916 40.0563 24.5114 40.0563 27.0727V32.8957C40.0563 35.3796 39.3102 37.3585 37.8135 38.8325C36.3168 40.3065 34.2514 41.0435 31.6128 41.0435H0.86891C0.391237 41.0435 0 40.6568 0 40.1745V40.1791ZM2.32922 17.7649C2.32922 18.2425 2.71591 18.6338 3.19813 18.6338H31.0305C32.9321 18.6338 34.4288 18.0788 35.5116 16.9733C36.5988 15.8678 37.1402 14.2847 37.1402 12.2284V9.02573C37.1402 6.96946 36.5943 5.38631 35.5116 4.28084C34.4243 3.17537 32.9276 2.62036 31.0305 2.62036H3.19813C2.72046 2.62036 2.32922 3.00705 2.32922 3.48927V17.7649ZM2.32922 37.8499C2.32922 38.3275 2.71591 38.7188 3.19813 38.7188H31.6128C33.5144 38.7188 35.0111 38.1774 36.0939 37.0901C37.1766 36.0029 37.7225 34.5107 37.7225 32.6046V27.0727C37.7225 25.1711 37.1766 23.6744 36.0939 22.5916C35.0066 21.5044 33.5099 20.963 31.6128 20.963H3.19813C2.72046 20.963 2.32922 21.3497 2.32922 21.8319V37.8544V37.8499Z" fill="white"/>
<path d="M44.601 33.1869V0.86891C44.601 0.391237 44.9876 0 45.4699 0H46.0613C46.5389 0 46.9302 0.386688 46.9302 0.86891V33.1869C46.9302 34.9338 47.4624 36.3395 48.5315 37.4086C49.6006 38.4777 51.0063 39.0099 52.7532 39.0099H76.5049C78.2519 39.0099 79.6576 38.4777 80.7267 37.4086C81.7957 36.3395 82.328 34.9338 82.328 33.1869V0.86891C82.328 0.391237 82.7147 0 83.1969 0H83.7883C84.266 0 84.6572 0.386688 84.6572 0.86891V33.1869C84.6572 35.6708 83.9202 37.6497 82.4463 39.1237C80.9723 40.5976 78.9888 41.3346 76.5049 41.3346H52.7532C50.2693 41.3346 48.2904 40.5976 46.8164 39.1237C45.3425 37.6497 44.6055 35.6708 44.6055 33.1869H44.601Z" fill="white"/>
<path d="M108.3 40.1791V26.4949C108.3 26.3038 108.236 26.1173 108.118 25.9626L89.3885 1.69231C89.2702 1.54219 89.2065 1.35567 89.2065 1.16005C89.2065 0.682374 89.5932 0.291138 90.0755 0.291138H90.8261C91.0899 0.291138 91.3401 0.413968 91.5039 0.618685L108.768 22.3596C109.119 22.8009 109.797 22.7964 110.138 22.346L126.738 0.632333C126.902 0.418517 127.157 0.291138 127.429 0.291138H128.171C128.649 0.291138 129.04 0.677825 129.04 1.16005V1.16915C129.04 1.35567 128.981 1.53764 128.867 1.68776L110.802 25.9717C110.688 26.1219 110.629 26.3038 110.629 26.4904V40.1791C110.629 40.6568 110.242 41.048 109.76 41.048H109.169C108.691 41.048 108.3 40.6613 108.3 40.1791Z" fill="white"/>
<path d="M156.263 0.29117C169.246 0.29117 177.744 3.88054 177.744 12.0783V12.2967C177.744 12.838 177.308 13.2748 176.766 13.2748H170.411C169.87 13.2748 169.433 12.838 169.433 12.2967V12.0783C169.433 8.01127 164.765 6.27345 156.267 6.27345H155.671C147.232 6.27345 142.506 8.00672 142.506 11.96V12.5605C142.506 16.209 146.696 17.5283 152.077 17.5283H180.419C180.961 17.5283 181.397 17.9651 181.397 18.5064V22.2323C181.397 22.7736 180.961 23.2104 180.419 23.2104H179.387C178.845 23.2104 178.409 23.6471 178.409 24.1885V39.8789C178.409 40.4202 177.972 40.857 177.43 40.857H171.43C170.889 40.857 170.452 40.4202 170.452 39.8789V38.0091C170.452 37.4678 170.015 37.031 169.474 37.031C169.255 37.031 169.046 37.1084 168.873 37.2403C165.27 40.029 159.625 41.3392 152.5 41.3392H151.905C139.339 41.3392 133.594 37.1493 133.594 30.8668V30.2071C133.594 26.0355 135.395 23.2832 139.153 21.4816C139.49 21.3224 139.694 20.9767 139.694 20.6036V20.3079C139.694 19.9349 139.49 19.5846 139.153 19.4208C135.805 17.7785 134.131 15.654 134.131 11.9555V11.355C134.131 3.87599 142.028 0.286621 155.671 0.286621H156.267L156.263 0.29117ZM141.964 28.8924V29.552C141.964 33.6828 146.75 35.3569 155.908 35.3569H156.504C164.524 35.3569 170.447 33.1414 170.447 27.4002V24.193C170.447 23.6516 170.011 23.2149 169.469 23.2149H152.077C145.736 23.2149 141.964 24.9482 141.964 28.9015V28.8924Z" fill="white"/>
</svg>
