<svg width="301" height="193" viewBox="0 0 301 193" fill="none" xmlns="http://www.w3.org/2000/svg">
<path d="M147.421 145.557V81.0744C147.421 80.285 148.06 79.6385 148.857 79.6385H149.834C150.624 79.6385 151.27 80.2775 151.27 81.0744V145.557C151.27 146.346 150.631 146.993 149.834 146.993H148.857C148.068 146.993 147.421 146.353 147.421 145.557Z" fill="white"/>
<path d="M73.7142 145.557V81.0744C73.7142 80.285 74.3533 79.6385 75.1502 79.6385H76.1275C76.9169 79.6385 77.5635 80.2775 77.5635 81.0744V108.996C77.5635 109.786 78.2025 110.432 78.9994 110.432H134.625C135.415 110.432 136.061 109.793 136.061 108.996V81.0744C136.061 80.285 136.7 79.6385 137.497 79.6385H138.475C139.264 79.6385 139.91 80.2775 139.91 81.0744V145.557C139.91 146.346 139.271 146.993 138.475 146.993H137.497C136.708 146.993 136.061 146.353 136.061 145.557V115.71C136.061 114.921 135.422 114.274 134.625 114.274H78.9994C78.21 114.274 77.5635 114.913 77.5635 115.71V145.557C77.5635 146.346 76.9244 146.993 76.1275 146.993H75.1502C74.3608 146.993 73.7142 146.353 73.7142 145.557Z" fill="white"/>
<path d="M158.788 145.557V81.0744C158.788 80.285 159.427 79.6385 160.224 79.6385H162.51C162.901 79.6385 163.277 79.7964 163.547 80.082L222.489 141.339H222.97V81.0819C222.97 80.2926 223.609 79.646 224.406 79.646H225.383C226.172 79.646 226.819 80.285 226.819 81.0819V145.564C226.819 146.353 226.18 147 225.383 147H223.097C222.707 147 222.331 146.842 222.06 146.556L163.119 85.2996H162.637V145.557C162.637 146.346 161.998 146.993 161.202 146.993H160.224C159.435 146.993 158.788 146.353 158.788 145.557Z" fill="white"/>
<path d="M234.329 145.557V81.0744C234.329 80.285 234.968 79.6385 235.765 79.6385H299.09C299.879 79.6385 300.526 80.2775 300.526 81.0744V81.4503C300.526 81.8337 300.375 82.1946 300.105 82.4653L299.503 83.0667C299.233 83.3374 298.872 83.4877 298.488 83.4877H239.615C238.825 83.4877 238.179 84.1268 238.179 84.9237V108.996C238.179 109.786 238.818 110.432 239.615 110.432H292.354C293.143 110.432 293.789 111.071 293.789 111.868V112.846C293.789 113.635 293.15 114.282 292.354 114.282H239.615C238.825 114.282 238.179 114.921 238.179 115.718V141.715C238.179 142.504 238.818 143.151 239.615 143.151H299.09C299.879 143.151 300.526 143.79 300.526 144.587V145.564C300.526 146.353 299.887 147 299.09 147H235.765C234.976 147 234.329 146.361 234.329 145.564V145.557Z" fill="white"/>
<path d="M55.9191 111.861L11.247 108.996C11.1267 108.989 11.0064 108.966 10.8861 108.929C8.41267 108.162 6.62338 107.094 5.53327 105.711C4.41308 104.298 3.84923 102.185 3.84923 99.3582V93.1032C3.84923 90.2163 4.72884 87.8932 6.49558 86.1265C8.26231 84.3598 10.5854 83.4802 13.4723 83.4802H63.7829C64.5723 83.4802 65.2189 82.8411 65.2189 82.0442V81.0669C65.2189 80.2775 64.5799 79.6309 63.7829 79.6309H13.4723C9.36746 79.6309 6.09712 80.8488 3.66128 83.2847C1.22544 85.7205 0.00751803 88.9984 0.00751803 93.0957V99.3507C0.00751803 103.268 0.857055 106.245 2.55613 108.297C4.22513 110.312 6.68353 111.808 9.93883 112.77C10.0516 112.8 10.1644 112.823 10.2847 112.831L54.9568 115.695C55.0771 115.702 55.2049 115.725 55.3176 115.763C57.7911 116.529 59.5729 117.604 60.6705 118.98C61.7907 120.394 62.3545 122.506 62.3545 125.333V133.513C62.3545 136.4 61.4749 138.723 59.7082 140.489C57.9414 142.256 55.6184 143.136 52.7314 143.136H1.43594C0.64655 143.136 0 143.775 0 144.572V145.549C0 146.338 0.639032 146.985 1.43594 146.985H52.7239C56.8288 146.985 60.0991 145.767 62.535 143.331C64.9708 140.895 66.1887 137.625 66.1887 133.52V125.341C66.1887 121.431 65.3392 118.447 63.6401 116.394C61.9711 114.379 59.5052 112.883 56.2574 111.921C56.1446 111.891 56.0319 111.868 55.9116 111.861H55.9191Z" fill="white"/>
<path d="M0.375916 66.3992V1.91708C0.375916 1.12017 1.01495 0.48114 1.81186 0.48114H51.6564C56.0168 0.48114 59.4375 1.69906 61.9035 4.1349C64.3694 6.57074 65.6098 9.8486 65.6098 13.9459V21.1632C65.6098 24.8847 64.4897 27.8693 62.2418 30.1097C61.2118 31.072 60.0916 31.7787 58.8737 32.2298V32.7109C60.2871 33.0943 61.5651 33.771 62.7229 34.7333C65.2866 37.1691 66.5722 40.5071 66.5722 44.7398V54.3628C66.5722 58.4677 65.3392 61.738 62.8658 64.1739C60.3923 66.6097 56.9791 67.8276 52.6187 67.8276H1.81186C1.02247 67.8276 0.375916 67.1886 0.375916 66.3917V66.3992ZM4.22515 29.3579C4.22515 30.1473 4.86418 30.7938 5.66109 30.7938H51.6564C54.7989 30.7938 57.2723 29.8766 59.0616 28.0498C60.8584 26.2229 61.7531 23.6066 61.7531 20.2084V14.9158C61.7531 11.5176 60.8509 8.90133 59.0616 7.07445C57.2648 5.24757 54.7914 4.33037 51.6564 4.33037H5.66109C4.8717 4.33037 4.22515 4.9694 4.22515 5.76631V29.3579ZM4.22515 62.55C4.22515 63.3394 4.86418 63.9859 5.66109 63.9859H52.6187C55.7612 63.9859 58.2347 63.0913 60.0239 61.2945C61.8132 59.4977 62.7154 57.0317 62.7154 53.8817V44.7398C62.7154 41.5972 61.8132 39.1238 60.0239 37.3345C58.2271 35.5377 55.7537 34.6431 52.6187 34.6431H5.66109C4.8717 34.6431 4.22515 35.2821 4.22515 36.079V62.5575V62.55Z" fill="white"/>
<path d="M74.0826 54.844V1.43594C74.0826 0.64655 74.7217 0 75.5186 0H76.4959C77.2853 0 77.9319 0.639032 77.9319 1.43594V54.844C77.9319 57.7309 78.8115 60.054 80.5782 61.8207C82.345 63.5875 84.668 64.4671 87.5549 64.4671H126.807C129.693 64.4671 132.017 63.5875 133.783 61.8207C135.55 60.054 136.43 57.7309 136.43 54.844V1.43594C136.43 0.64655 137.069 0 137.866 0H138.843C139.632 0 140.279 0.639032 140.279 1.43594V54.844C140.279 58.9489 139.061 62.2192 136.625 64.655C134.189 67.0909 130.911 68.3088 126.807 68.3088H87.5549C83.4501 68.3088 80.1798 67.0909 77.7439 64.655C75.3081 62.2192 74.0902 58.9489 74.0902 54.844H74.0826Z" fill="white"/>
<path d="M179.35 66.3992V43.785C179.35 43.4692 179.245 43.161 179.049 42.9054L148.098 2.79669C147.902 2.5486 147.797 2.24036 147.797 1.91708C147.797 1.12769 148.436 0.48114 149.233 0.48114H150.473C150.909 0.48114 151.323 0.684127 151.593 1.02244L180.124 36.9511C180.703 37.6803 181.823 37.6728 182.387 36.9285L209.821 1.04499C210.091 0.691645 210.512 0.48114 210.963 0.48114H212.189C212.978 0.48114 213.625 1.12017 213.625 1.91708V1.93212C213.625 2.24036 213.527 2.54108 213.339 2.78918L183.485 42.9204C183.297 43.1685 183.199 43.4692 183.199 43.7775V66.3992C183.199 67.1886 182.56 67.8352 181.763 67.8352H180.786C179.997 67.8352 179.35 67.1961 179.35 66.3992Z" fill="white"/>
<path d="M258.613 0.481151C280.069 0.481151 294.113 6.41287 294.113 19.9604V20.3212C294.113 21.2159 293.391 21.9376 292.496 21.9376H281.994C281.099 21.9376 280.377 21.2159 280.377 20.3212V19.9604C280.377 13.2392 272.664 10.3674 258.62 10.3674H257.635C243.689 10.3674 235.878 13.2317 235.878 19.7649V20.7573C235.878 26.7867 242.802 28.967 251.696 28.967H298.533C299.428 28.967 300.15 29.6887 300.15 30.5833V36.7406C300.15 37.6352 299.428 38.357 298.533 38.357H296.827C295.932 38.357 295.21 39.0787 295.21 39.9734V65.903C295.21 66.7977 294.489 67.5194 293.594 67.5194H283.678C282.783 67.5194 282.061 66.7977 282.061 65.903V62.8131C282.061 61.9185 281.34 61.1967 280.445 61.1967C280.084 61.1967 279.738 61.3246 279.453 61.5426C273.498 66.1511 264.168 68.3163 252.395 68.3163H251.41C230.646 68.3163 221.15 61.3922 221.15 51.0098V49.9197C221.15 43.0257 224.127 38.4773 230.337 35.5001C230.894 35.237 231.232 34.6656 231.232 34.0491V33.5605C231.232 32.944 230.894 32.3651 230.337 32.0945C224.804 29.3804 222.037 25.8695 222.037 19.7574V18.765C222.037 6.40536 235.089 0.473633 257.635 0.473633H258.62L258.613 0.481151ZM234.983 47.747V48.8371C234.983 55.6635 242.892 58.4301 258.026 58.4301H259.011C272.265 58.4301 282.054 54.7688 282.054 45.2811V39.9809C282.054 39.0862 281.332 38.3645 280.437 38.3645H251.696C241.216 38.3645 234.983 41.2289 234.983 47.762V47.747Z" fill="white"/>
<path d="M75.6344 173.942C72.9524 173.942 70.7744 176.12 70.7744 178.802C70.7744 181.484 72.9524 183.662 75.6344 183.662C78.3164 183.662 80.4944 181.484 80.4944 178.802C80.4944 176.12 78.3164 173.942 75.6344 173.942ZM75.6344 182.96C73.3484 182.96 71.4944 181.106 71.4944 178.802C71.4944 176.498 73.3484 174.644 75.6344 174.644C77.9204 174.644 79.7744 176.498 79.7744 178.802C79.7744 181.106 77.9204 182.96 75.6344 182.96ZM75.6524 177.056C76.3184 177.056 76.8944 177.434 77.1284 178.046H78.0284C77.7404 176.948 76.7684 176.246 75.6524 176.246C74.2304 176.246 73.1324 177.326 73.1324 178.802C73.1324 180.26 74.2304 181.34 75.6524 181.34C76.7684 181.34 77.7404 180.638 78.0284 179.54H77.1284C76.8944 180.152 76.3184 180.53 75.6524 180.53C74.7164 180.53 73.9784 179.81 73.9784 178.802C73.9784 177.776 74.7164 177.056 75.6524 177.056ZM97.7137 186.56H90.7297L93.1417 184.472C96.0397 181.952 97.3717 180.8 97.3717 178.928C97.3717 176.822 95.6797 175.202 93.1057 175.202C90.5497 175.202 88.7317 176.768 88.3717 179.27H89.8837C90.2257 177.65 91.2517 176.624 93.0337 176.624C94.7797 176.624 95.8777 177.614 95.8777 178.982C95.8777 180.278 94.9777 181.052 91.9177 183.734L88.2637 186.92V188H97.7137V186.56ZM104.455 175.202C101.287 175.202 99.379 177.524 99.379 181.7C99.379 185.876 101.287 188.198 104.455 188.198C107.659 188.198 109.531 185.822 109.531 181.7C109.531 177.578 107.659 175.202 104.455 175.202ZM104.455 186.776C102.331 186.776 100.891 185.318 100.891 181.7C100.891 178.082 102.331 176.624 104.455 176.624C106.579 176.624 108.019 178.082 108.019 181.7C108.019 185.318 106.579 186.776 104.455 186.776ZM120.671 186.56H113.687L116.099 184.472C118.997 181.952 120.329 180.8 120.329 178.928C120.329 176.822 118.637 175.202 116.063 175.202C113.507 175.202 111.689 176.768 111.329 179.27H112.841C113.183 177.65 114.209 176.624 115.991 176.624C117.737 176.624 118.835 177.614 118.835 178.982C118.835 180.278 117.935 181.052 114.875 183.734L111.221 186.92V188H120.671V186.56ZM129.46 181.358C130.648 180.926 131.278 179.9 131.278 178.712C131.278 176.624 129.424 175.202 127.012 175.202C124.762 175.202 122.926 176.264 122.458 178.838H123.97C124.402 177.182 125.464 176.624 126.976 176.624C128.632 176.624 129.766 177.488 129.766 178.892C129.766 180.116 128.848 180.836 126.94 180.836H125.626V182.15H127.372C129.424 182.15 130.18 183.104 130.18 184.364C130.18 185.84 129.046 186.776 127.174 186.776C125.5 186.776 124.15 186.11 123.772 184.4H122.26C122.638 186.974 124.726 188.198 127.192 188.198C129.838 188.198 131.692 186.776 131.692 184.472C131.692 182.942 130.864 181.808 129.46 181.358ZM146.706 181.304C147.93 180.8 148.488 179.9 148.488 178.604C148.488 176.606 147.246 175.4 144.672 175.4H139.47V188H144.762C147.498 188 148.884 186.65 148.884 184.508C148.884 182.906 148.182 181.718 146.706 181.304ZM146.976 178.82C146.976 180.026 146.364 180.8 144.456 180.8H140.964V176.822H144.492C146.346 176.822 146.976 177.56 146.976 178.82ZM144.744 186.578H140.964V182.168H144.708C146.688 182.168 147.39 183.014 147.39 184.4C147.39 185.696 146.724 186.578 144.744 186.578ZM157.961 178.1V183.176C157.961 185.372 156.827 186.776 154.865 186.776C153.245 186.776 152.417 185.858 152.417 184.094V178.1H150.923V184.382C150.923 186.794 152.237 188.198 154.433 188.198C156.143 188.198 157.295 187.334 157.961 186.038V188H159.455V178.1H157.961ZM169.269 178.1L166.011 185.192L162.807 178.1H161.205L165.219 186.794L162.591 192.5H164.193L170.871 178.1H169.269ZM183.073 188C182.299 187.208 181.615 186.488 180.985 185.84C181.687 184.85 182.137 183.608 182.299 182.258H180.787C180.625 183.266 180.337 184.094 179.941 184.76C178.681 183.464 177.727 182.456 176.989 181.664C178.753 180.53 179.923 179.63 179.923 178.046C179.923 176.336 178.609 175.202 176.755 175.202C174.901 175.202 173.371 176.3 173.371 178.226C173.371 179.144 173.749 179.972 174.901 181.358C173.227 182.384 172.129 183.212 172.129 184.85C172.129 187.028 173.893 188.198 176.305 188.198C177.817 188.198 179.077 187.694 180.067 186.848L181.165 188H183.073ZM174.883 178.316C174.883 177.2 175.639 176.588 176.755 176.57C177.835 176.588 178.411 177.218 178.411 178.082C178.411 178.892 177.925 179.432 176.143 180.602L176.089 180.638C175.153 179.54 174.883 178.964 174.883 178.316ZM176.395 186.83C174.613 186.83 173.641 186.002 173.641 184.814C173.641 183.824 174.397 183.302 175.819 182.402C176.647 183.302 177.709 184.418 179.077 185.84C178.339 186.506 177.421 186.83 176.395 186.83ZM189.828 180.872C187.29 180.296 186.498 179.9 186.498 178.856C186.498 177.452 187.686 176.606 189.54 176.606C191.376 176.606 192.456 177.344 192.924 178.55H194.436C193.986 176.66 192.474 175.202 189.522 175.202C187.092 175.202 185.004 176.498 185.004 178.856C185.004 181.088 186.822 181.736 189.486 182.33C191.934 182.87 193.104 183.158 193.104 184.544C193.104 185.984 191.916 186.794 189.972 186.794C187.776 186.794 186.588 185.894 186.174 184.22H184.662C185.058 186.434 186.66 188.198 190.008 188.198C192.384 188.198 194.616 187.064 194.616 184.49C194.616 182.114 192.834 181.538 189.828 180.872ZM201.863 177.902C200.153 177.902 199.001 178.712 198.317 180.026V174.14H196.823V188H198.317V182.924C198.317 180.746 199.415 179.324 201.449 179.324C203.087 179.324 203.951 180.224 203.951 182.006V188H205.445V181.718C205.445 179.306 204.113 177.902 201.863 177.902ZM208.775 173.744C208.181 173.744 207.731 174.176 207.731 174.734C207.731 175.31 208.181 175.742 208.775 175.742C209.369 175.742 209.819 175.31 209.819 174.734C209.819 174.176 209.369 173.744 208.775 173.744ZM208.019 188H209.513V178.1H208.019V188ZM217.207 177.902C215.479 177.902 214.327 178.73 213.661 180.062V178.1H212.167V188H213.661V182.924C213.661 180.746 214.777 179.324 216.793 179.324C218.413 179.324 219.295 180.224 219.295 182.006V188H220.789V181.718C220.789 179.306 219.439 177.902 217.207 177.902ZM228.009 177.902C225.057 177.902 222.951 180.08 222.951 183.086C222.951 186.11 225.093 188.198 228.027 188.198C230.097 188.198 231.897 187.172 232.725 185.066H231.177C230.583 186.218 229.449 186.794 228.081 186.794C226.083 186.794 224.625 185.552 224.481 183.5H232.959C233.085 180.242 231.087 177.902 228.009 177.902ZM228.009 179.306C229.791 179.306 231.015 180.44 231.339 182.096H224.553C224.895 180.476 226.191 179.306 228.009 179.306Z" fill="white"/>
</svg>
