<svg width="9" height="9" viewBox="0 0 9 9" fill="none" xmlns="http://www.w3.org/2000/svg">
<path d="M6.47772 2.61028L8.4228 2.90265C8.97437 2.98554 9.19536 3.69225 8.79682 4.09841L7.39118 5.53094C7.23287 5.69224 7.16087 5.92444 7.19853 6.15188L7.53305 8.17175C7.62789 8.74451 7.05193 9.18215 6.55832 8.91228L4.81781 7.96072C4.62178 7.85355 4.38774 7.85377 4.19206 7.96146L2.45373 8.9175C1.96082 9.18861 1.3838 8.75237 1.47731 8.17939L1.80717 6.15859C1.84426 5.93101 1.77177 5.69895 1.61304 5.53802L0.204366 4.10909C-0.195175 3.70387 0.0241997 2.99667 0.575691 2.91237L2.52005 2.61521C2.739 2.58182 2.92811 2.4381 3.02579 2.23097L3.89339 0.391689C4.13942 -0.129875 4.85203 -0.13076 5.0992 0.390218L5.97097 2.22728C6.0692 2.43403 6.25861 2.57733 6.47769 2.6102L6.47772 2.61028Z" fill="#D98E63"/>
</svg>
