<svg width="51" height="51" viewBox="0 0 51 51" fill="none" xmlns="http://www.w3.org/2000/svg">
<circle cx="25.8192" cy="25.1808" r="25.1808" fill="white"/>
<path d="M37.7814 20.1349C37.7978 20.3768 37.7978 20.6186 37.7978 20.8627C37.7978 28.2997 32.2319 36.8768 22.0543 36.8768V36.8723C19.0478 36.8768 16.1038 36.0008 13.5728 34.3491C14.01 34.4026 14.4493 34.4294 14.8898 34.4305C17.3813 34.4327 19.8016 33.5823 21.7618 32.0165C19.394 31.9708 17.3178 30.4005 16.5924 28.108C17.4219 28.2707 18.2765 28.2372 19.0905 28.011C16.5092 27.4805 14.652 25.1735 14.652 22.4943V22.423C15.4212 22.8587 16.2824 23.1006 17.1633 23.1273C14.732 21.4745 13.9826 18.1846 15.4508 15.6123C18.26 19.1285 22.4049 21.2661 26.8544 21.4924C26.4084 19.5375 27.0176 17.4891 28.4551 16.1149C30.6837 13.984 34.1887 14.0933 36.2836 16.359C37.5228 16.1105 38.7105 15.648 39.7974 14.9927C39.3843 16.2955 38.5198 17.4022 37.365 18.1054C38.4618 17.9739 39.5333 17.6752 40.5424 17.2194C39.7996 18.3517 38.8639 19.338 37.7814 20.1349Z" fill="#D98E63"/>
</svg>
